<svg width="24" height="24" fill="none" xmlns="http://www.w3.org/2000/svg"><path d="M0 22v-3.5c0-.708.17-1.36.51-1.954a3.41 3.41 0 0 1 1.41-1.358 17.583 17.583 0 0 1 3.736-1.438 15.7 15.7 0 0 1 3.944-.5c.5 0 1 .036 1.5.109.5.073 1 .162 1.5.266v1.969c-.9.458-1.625 1.062-2.174 1.812-.55.75-.826 1.73-.826 2.938V22H0Zm12 0v-1.75c0-.5.125-.963.374-1.39.25-.427.606-.735 1.066-.922.72-.313 1.465-.547 2.236-.703a11.621 11.621 0 0 1 4.65 0c.77.156 1.514.39 2.234.703.46.187.815.495 1.066.922.25.427.374.89.374 1.39V22H12Zm6-6.25a2.84 2.84 0 0 1-2.13-.906c-.58-.604-.87-1.344-.87-2.219 0-.875.29-1.615.87-2.219A2.839 2.839 0 0 1 18 9.5c.84 0 1.55.302 2.13.906.58.604.87 1.344.87 2.219 0 .875-.29 1.615-.87 2.219a2.84 2.84 0 0 1-2.13.906ZM9.6 12c-1.32 0-2.45-.49-3.39-1.469C5.27 9.552 4.8 8.375 4.8 7s.47-2.552 1.41-3.531C7.15 2.489 8.28 2 9.6 2c1.32 0 2.45.49 3.39 1.469.94.979 1.41 2.156 1.41 3.531s-.47 2.552-1.41 3.531C12.05 11.511 10.92 12 9.6 12Z" fill="#000"/></svg>