<svg width="24" height="24" fill="none" xmlns="http://www.w3.org/2000/svg"><g clip-path="url(#a)"><path d="M6 0H1.2A1.2 1.2 0 0 0 0 1.2v21.6A1.2 1.2 0 0 0 1.2 24H6a1.2 1.2 0 0 0 1.2-1.2V1.2A1.2 1.2 0 0 0 6 0ZM3.6 22.8a2.4 2.4 0 1 1 0-4.8 2.4 2.4 0 0 1 0 4.8ZM6 12H1.2V1.2H6V12Zm-1.2 8.4a1.2 1.2 0 1 1-2.4 0 1.2 1.2 0 0 1 2.4 0ZM14.4 0H9.6a1.2 1.2 0 0 0-1.2 1.2v21.6A1.2 1.2 0 0 0 9.6 24h4.8a1.2 1.2 0 0 0 1.2-1.2V1.2A1.2 1.2 0 0 0 14.4 0ZM12 22.8a2.4 2.4 0 1 1 0-4.8 2.4 2.4 0 0 1 0 4.8ZM14.4 12H9.6V1.2h4.8V12Zm-1.2 8.4a1.2 1.2 0 1 1-2.401 0 1.2 1.2 0 0 1 2.401 0ZM22.8 0H18a1.2 1.2 0 0 0-1.2 1.2v21.6A1.2 1.2 0 0 0 18 24h4.8a1.2 1.2 0 0 0 1.2-1.2V1.2A1.2 1.2 0 0 0 22.8 0Zm-2.4 22.8a2.4 2.4 0 1 1 0-4.8 2.4 2.4 0 0 1 0 4.8ZM22.8 12H18V1.2h4.8V12Zm-1.2 8.4a1.2 1.2 0 1 1-2.401 0 1.2 1.2 0 0 1 2.401 0Z" fill="#000"/></g><defs><clipPath id="a"><path fill="#fff" d="M0 0h24v24H0z"/></clipPath></defs></svg>