<svg width="24" height="24" viewBox="0 0 24 24" fill="none" xmlns="http://www.w3.org/2000/svg">
<path d="M0 22V18.5C0 17.7917 0.17 17.1404 0.51 16.5463C0.85 15.9529 1.32 15.5 1.92 15.1875C3.12 14.5625 4.3652 14.0833 5.6556 13.75C6.9452 13.4167 8.26 13.25 9.6 13.25C10.1 13.25 10.6 13.2862 11.1 13.3587C11.6 13.4321 12.1 13.5208 12.6 13.625V15.5938C11.7 16.0521 10.9752 16.6563 10.4256 17.4063C9.8752 18.1563 9.6 19.1354 9.6 20.3437V22H0ZM12 22V20.25C12 19.75 12.1248 19.2867 12.3744 18.86C12.6248 18.4325 12.98 18.125 13.44 17.9375C14.16 17.625 14.9052 17.3908 15.6756 17.235C16.4452 17.0783 17.22 17 18 17C18.78 17 19.5552 17.0783 20.3256 17.235C21.0952 17.3908 21.84 17.625 22.56 17.9375C23.02 18.125 23.3752 18.4325 23.6256 18.86C23.8752 19.2867 24 19.75 24 20.25V22H12ZM18 15.75C17.16 15.75 16.45 15.4479 15.87 14.8437C15.29 14.2396 15 13.5 15 12.625C15 11.75 15.29 11.0104 15.87 10.4063C16.45 9.80208 17.16 9.5 18 9.5C18.84 9.5 19.55 9.80208 20.13 10.4063C20.71 11.0104 21 11.75 21 12.625C21 13.5 20.71 14.2396 20.13 14.8437C19.55 15.4479 18.84 15.75 18 15.75ZM9.6 12C8.28 12 7.15 11.5104 6.21 10.5312C5.27 9.55208 4.8 8.375 4.8 7C4.8 5.625 5.27 4.44792 6.21 3.46875C7.15 2.48958 8.28 2 9.6 2C10.92 2 12.05 2.48958 12.99 3.46875C13.93 4.44792 14.4 5.625 14.4 7C14.4 8.375 13.93 9.55208 12.99 10.5312C12.05 11.5104 10.92 12 9.6 12Z" fill="black"/>
</svg>
