<svg width="24" height="24" viewBox="0 0 24 24" fill="none" xmlns="http://www.w3.org/2000/svg">
<path d="M12 23C8.94444 23 6.34722 21.9306 4.20833 19.7917C2.06944 17.6528 1 15.0556 1 12C1 8.94444 2.06944 6.34722 4.20833 4.20833C6.34722 2.06944 8.94444 1 12 1C12.2852 1 12.5655 1.01019 12.8409 1.03056C13.1155 1.05093 13.3852 1.08148 13.65 1.12222C12.8148 1.71296 12.1479 2.48174 11.6492 3.42856C11.1497 4.37619 10.9 5.4 10.9 6.5C10.9 8.33333 11.5417 9.89167 12.825 11.175C14.1083 12.4583 15.6667 13.1 17.5 13.1C18.6204 13.1 19.6491 12.8503 20.5861 12.3508C21.5231 11.8521 22.287 11.1852 22.8778 10.35C22.9185 10.6148 22.9491 10.8845 22.9694 11.1591C22.9898 11.4345 23 11.7148 23 12C23 15.0556 21.9306 17.6528 19.7917 19.7917C17.6528 21.9306 15.0556 23 12 23Z" fill="black"/>
</svg>
