<svg width="24" height="24" viewBox="0 0 24 24" fill="none" xmlns="http://www.w3.org/2000/svg">
<g clip-path="url(#clip0_354_325)">
<path d="M6 0H1.2C0.88174 0 0.576515 0.126428 0.351472 0.351472C0.126428 0.576515 0 0.88174 0 1.2V22.8C0 23.1183 0.126428 23.4235 0.351472 23.6485C0.576515 23.8736 0.88174 24 1.2 24H6C6.31826 24 6.62348 23.8736 6.84853 23.6485C7.07357 23.4235 7.2 23.1183 7.2 22.8V1.2C7.2 0.88174 7.07357 0.576515 6.84853 0.351472C6.62348 0.126428 6.31826 0 6 0ZM3.6 22.8C3.12532 22.8 2.66131 22.6592 2.26663 22.3955C1.87195 22.1318 1.56434 21.757 1.38269 21.3184C1.20104 20.8799 1.15351 20.3973 1.24612 19.9318C1.33872 19.4662 1.5673 19.0386 1.90294 18.7029C2.23859 18.3673 2.66623 18.1387 3.13178 18.0461C3.59734 17.9535 4.0799 18.001 4.51844 18.1827C4.95698 18.3643 5.33181 18.672 5.59553 19.0666C5.85924 19.4613 6 19.9253 6 20.4C6 21.0365 5.74714 21.647 5.29706 22.0971C4.84697 22.5471 4.23652 22.8 3.6 22.8ZM6 12H1.2V1.2H6V12ZM4.8 20.4C4.8 20.6373 4.72962 20.8693 4.59776 21.0667C4.46591 21.264 4.27849 21.4178 4.05922 21.5087C3.83995 21.5995 3.59867 21.6232 3.36589 21.5769C3.13311 21.5306 2.9193 21.4164 2.75147 21.2485C2.58365 21.0807 2.46936 20.8669 2.42306 20.6341C2.37676 20.4013 2.40052 20.1601 2.49134 19.9408C2.58217 19.7215 2.73598 19.5341 2.93332 19.4022C3.13065 19.2704 3.36266 19.2 3.6 19.2C3.91826 19.2 4.22348 19.3264 4.44853 19.5515C4.67357 19.7765 4.8 20.0817 4.8 20.4ZM14.4 0H9.6C9.28174 0 8.97652 0.126428 8.75147 0.351472C8.52643 0.576515 8.4 0.88174 8.4 1.2V22.8C8.4 23.1183 8.52643 23.4235 8.75147 23.6485C8.97652 23.8736 9.28174 24 9.6 24H14.4C14.7183 24 15.0235 23.8736 15.2485 23.6485C15.4736 23.4235 15.6 23.1183 15.6 22.8V1.2C15.6 0.88174 15.4736 0.576515 15.2485 0.351472C15.0235 0.126428 14.7183 0 14.4 0ZM12 22.8C11.5253 22.8 11.0613 22.6592 10.6666 22.3955C10.272 22.1318 9.96434 21.757 9.78269 21.3184C9.60104 20.8799 9.55351 20.3973 9.64612 19.9318C9.73872 19.4662 9.9673 19.0386 10.3029 18.7029C10.6386 18.3673 11.0662 18.1387 11.5318 18.0461C11.9973 17.9535 12.4799 18.001 12.9184 18.1827C13.357 18.3643 13.7318 18.672 13.9955 19.0666C14.2592 19.4613 14.4 19.9253 14.4 20.4C14.4 21.0365 14.1471 21.647 13.6971 22.0971C13.247 22.5471 12.6365 22.8 12 22.8ZM14.4 12H9.6V1.2H14.4V12ZM13.2 20.4C13.2 20.6373 13.1296 20.8693 12.9978 21.0667C12.8659 21.264 12.6785 21.4178 12.4592 21.5087C12.2399 21.5995 11.9987 21.6232 11.7659 21.5769C11.5331 21.5306 11.3193 21.4164 11.1515 21.2485C10.9836 21.0807 10.8694 20.8669 10.8231 20.6341C10.7768 20.4013 10.8005 20.1601 10.8913 19.9408C10.9822 19.7215 11.136 19.5341 11.3333 19.4022C11.5307 19.2704 11.7627 19.2 12 19.2C12.3183 19.2 12.6235 19.3264 12.8485 19.5515C13.0736 19.7765 13.2 20.0817 13.2 20.4ZM22.8 0H18C17.6817 0 17.3765 0.126428 17.1515 0.351472C16.9264 0.576515 16.8 0.88174 16.8 1.2V22.8C16.8 23.1183 16.9264 23.4235 17.1515 23.6485C17.3765 23.8736 17.6817 24 18 24H22.8C23.1183 24 23.4235 23.8736 23.6485 23.6485C23.8736 23.4235 24 23.1183 24 22.8V1.2C24 0.88174 23.8736 0.576515 23.6485 0.351472C23.4235 0.126428 23.1183 0 22.8 0ZM20.4 22.8C19.9253 22.8 19.4613 22.6592 19.0666 22.3955C18.672 22.1318 18.3643 21.757 18.1827 21.3184C18.001 20.8799 17.9535 20.3973 18.0461 19.9318C18.1387 19.4662 18.3673 19.0386 18.7029 18.7029C19.0386 18.3673 19.4662 18.1387 19.9318 18.0461C20.3973 17.9535 20.8799 18.001 21.3184 18.1827C21.757 18.3643 22.1318 18.672 22.3955 19.0666C22.6592 19.4613 22.8 19.9253 22.8 20.4C22.8 21.0365 22.5471 21.647 22.0971 22.0971C21.647 22.5471 21.0365 22.8 20.4 22.8ZM22.8 12H18V1.2H22.8V12ZM21.6 20.4C21.6 20.6373 21.5296 20.8693 21.3978 21.0667C21.2659 21.264 21.0785 21.4178 20.8592 21.5087C20.6399 21.5995 20.3987 21.6232 20.1659 21.5769C19.9331 21.5306 19.7193 21.4164 19.5515 21.2485C19.3836 21.0807 19.2694 20.8669 19.2231 20.6341C19.1768 20.4013 19.2005 20.1601 19.2913 19.9408C19.3822 19.7215 19.536 19.5341 19.7333 19.4022C19.9307 19.2704 20.1627 19.2 20.4 19.2C20.7183 19.2 21.0235 19.3264 21.2485 19.5515C21.4736 19.7765 21.6 20.0817 21.6 20.4Z" fill="black"/>
</g>
<defs>
<clipPath id="clip0_354_325">
<rect width="24" height="24" fill="white"/>
</clipPath>
</defs>
</svg>
