<svg width="23" height="23" viewBox="0 0 23 23" fill="none" xmlns="http://www.w3.org/2000/svg">
<path d="M8.57364 22L8.15407 18.6267C7.9268 18.5388 7.71282 18.4334 7.51213 18.3104C7.31073 18.1874 7.11389 18.0556 6.92158 17.9151L3.80104 19.2328L0.916504 14.2255L3.61748 12.1699C3.6 12.0469 3.59126 11.9281 3.59126 11.8136V11.102C3.59126 10.9882 3.6 10.8697 3.61748 10.7468L0.916504 8.69114L3.80104 3.68384L6.92158 5.00155C7.11389 4.861 7.31493 4.72923 7.52471 4.60624C7.7345 4.48325 7.94428 4.37784 8.15407 4.28999L8.57364 0.916656H14.3427L14.7623 4.28999C14.9895 4.37784 15.2039 4.48325 15.4053 4.60624C15.606 4.72923 15.8025 4.861 15.9948 5.00155L19.1153 3.68384L21.9998 8.69114L19.2989 10.7468C19.3163 10.8697 19.3251 10.9882 19.3251 11.102V11.8136C19.3251 11.9281 19.3076 12.0469 19.2726 12.1699L21.9736 14.2255L19.0891 19.2328L15.9948 17.9151C15.8025 18.0556 15.6014 18.1874 15.3916 18.3104C15.1818 18.4334 14.9721 18.5388 14.7623 18.6267L14.3427 22H8.57364ZM11.4582 15.675C11.7554 15.675 12.0047 15.5738 12.2061 15.3714C12.4067 15.1697 12.5071 14.9195 12.5071 14.6208C12.5071 14.3221 12.4067 14.0716 12.2061 13.8692C12.0047 13.6675 11.7554 13.5667 11.4582 13.5667C11.161 13.5667 10.912 13.6675 10.7113 13.8692C10.5099 14.0716 10.4092 14.3221 10.4092 14.6208C10.4092 14.9195 10.5099 15.1697 10.7113 15.3714C10.912 15.5738 11.161 15.675 11.4582 15.675ZM10.4092 12.5125H12.5071V7.24166H10.4092V12.5125Z" fill="black"/>
</svg>
