<svg width="33" height="32" viewBox="0 0 33 32" fill="none" xmlns="http://www.w3.org/2000/svg">
<path d="M7.36633 9.33333H25.753C26.1256 9.33335 26.494 9.41143 26.8345 9.56254C27.1751 9.71365 27.4802 9.93444 27.7301 10.2107C27.9801 10.4869 28.1695 10.8125 28.2859 11.1664C28.4024 11.5203 28.4434 11.8946 28.4063 12.2653L27.6063 20.2653C27.5405 20.9233 27.2326 21.5334 26.7423 21.9772C26.252 22.4209 25.6143 22.6666 24.953 22.6667H12.2197C11.603 22.6669 11.0052 22.4534 10.5283 22.0625C10.0513 21.6716 9.72454 21.1274 9.60367 20.5227L7.36633 9.33333Z" stroke="black" stroke-width="3" stroke-linejoin="round"/>
<path d="M7.36633 9.33333L6.28633 5.00933C6.2141 4.721 6.0476 4.46508 5.81328 4.28221C5.57895 4.09934 5.29024 4.00001 4.993 4H3.36633M11.3663 28H14.033M22.033 28H24.6997" stroke="black" stroke-width="3" stroke-linecap="round" stroke-linejoin="round"/>
</svg>
