<svg width="32" height="32" viewBox="0 0 32 32" fill="none" xmlns="http://www.w3.org/2000/svg">
<g clip-path="url(#clip0_314_230)">
<path d="M11.888 27.448C10.16 27.448 8.63467 27.1387 7.312 26.52C5.98933 25.9013 4.95467 25.016 4.208 23.864C3.46133 22.712 3.088 21.3253 3.088 19.704V18.808H7.248V19.704C7.248 21.048 7.664 22.0613 8.496 22.744C9.328 23.4053 10.4587 23.736 11.888 23.736C13.3387 23.736 14.416 23.448 15.12 22.872C15.8453 22.296 16.208 21.56 16.208 20.664C16.208 20.0453 16.0267 19.544 15.664 19.16C15.3227 18.776 14.8107 18.4667 14.128 18.232C13.4667 17.976 12.656 17.7413 11.696 17.528L10.96 17.368C9.424 17.0267 8.10133 16.6 6.992 16.088C5.904 15.5547 5.06133 14.8613 4.464 14.008C3.888 13.1547 3.6 12.0453 3.6 10.68C3.6 9.31467 3.92 8.152 4.56 7.192C5.22133 6.21067 6.13867 5.464 7.312 4.952C8.50667 4.41867 9.904 4.152 11.504 4.152C13.104 4.152 14.5227 4.42933 15.76 4.984C17.0187 5.51733 18 6.328 18.704 7.416C19.4293 8.48267 19.792 9.82667 19.792 11.448V12.408H15.632V11.448C15.632 10.5947 15.4613 9.912 15.12 9.4C14.8 8.86667 14.3307 8.48267 13.712 8.248C13.0933 7.992 12.3573 7.864 11.504 7.864C10.224 7.864 9.27467 8.10933 8.656 8.6C8.05867 9.06933 7.76 9.72 7.76 10.552C7.76 11.1067 7.89867 11.576 8.176 11.96C8.47467 12.344 8.912 12.664 9.488 12.92C10.064 13.176 10.8 13.4 11.696 13.592L12.432 13.752C14.032 14.0933 15.4187 14.5307 16.592 15.064C17.7867 15.5973 18.7147 16.3013 19.376 17.176C20.0373 18.0507 20.368 19.1707 20.368 20.536C20.368 21.9013 20.016 23.1067 19.312 24.152C18.6293 25.176 17.648 25.9867 16.368 26.584C15.1093 27.16 13.616 27.448 11.888 27.448Z" fill="black"/>
<path d="M26.1743 27.448C25.3209 27.448 24.5956 27.1707 23.9983 26.616C23.4223 26.04 23.1343 25.304 23.1343 24.408C23.1343 23.512 23.4223 22.7867 23.9983 22.232C24.5956 21.656 25.3209 21.368 26.1743 21.368C27.0489 21.368 27.7743 21.656 28.3503 22.232C28.9263 22.7867 29.2143 23.512 29.2143 24.408C29.2143 25.304 28.9263 26.04 28.3503 26.616C27.7743 27.1707 27.0489 27.448 26.1743 27.448Z" fill="#EBC343"/>
</g>
<defs>
<clipPath id="clip0_314_230">
<rect width="32" height="32" fill="white"/>
</clipPath>
</defs>
</svg>
