<svg width="33" height="32" viewBox="0 0 33 32" fill="none" xmlns="http://www.w3.org/2000/svg">
<path d="M16.6997 29.3333C15.9925 29.3333 15.3142 29.0524 14.8141 28.5523C14.314 28.0522 14.0331 27.3739 14.0331 26.6667H19.3664C19.3664 27.3739 19.0855 28.0522 18.5854 28.5523C18.0853 29.0524 17.407 29.3333 16.6997 29.3333ZM27.3664 25.3333H6.03308V22.6667L8.69975 21.3333V14C8.69975 9.384 10.5944 6.39067 14.0331 5.57333V2.66667H19.3664V5.57333C22.8051 6.38933 24.6997 9.38133 24.6997 14V21.3333L27.3664 22.6667V25.3333ZM16.6997 7.66667C15.899 7.61496 15.098 7.76483 14.3701 8.10257C13.6422 8.44032 13.0106 8.95515 12.5331 9.6C11.7031 10.9127 11.2959 12.4485 11.3664 14V22.6667H22.0331V14C22.1035 12.4485 21.6963 10.9128 20.8664 9.6C20.3889 8.95515 19.7572 8.44032 19.0294 8.10257C18.3015 7.76483 17.5005 7.61496 16.6997 7.66667V7.66667Z" fill="black"/>
</svg>
