<svg width="22" height="22" viewBox="0 0 22 22" fill="none" xmlns="http://www.w3.org/2000/svg">
<path d="M15.7233 13.8365H14.7296L14.3774 13.4969C15.6527 12.0176 16.3536 10.1292 16.3522 8.1761C16.3522 6.55902 15.8727 4.97826 14.9743 3.63371C14.0759 2.28915 12.7989 1.2412 11.305 0.622372C9.81097 0.00354258 8.16703 -0.158371 6.58102 0.157105C4.99502 0.472582 3.53818 1.25128 2.39473 2.39473C1.25128 3.53818 0.472582 4.99502 0.157105 6.58102C-0.158371 8.16703 0.00354258 9.81097 0.622372 11.305C1.2412 12.7989 2.28915 14.0759 3.63371 14.9743C4.97826 15.8727 6.55902 16.3522 8.1761 16.3522C10.2013 16.3522 12.0629 15.6101 13.4969 14.3774L13.8365 14.7296V15.7233L20.1258 22L22 20.1258L15.7233 13.8365ZM8.1761 13.8365C5.04403 13.8365 2.51573 11.3082 2.51573 8.1761C2.51573 5.04403 5.04403 2.51573 8.1761 2.51573C11.3082 2.51573 13.8365 5.04403 13.8365 8.1761C13.8365 11.3082 11.3082 13.8365 8.1761 13.8365Z" fill="black"/>
</svg>
